<svg xmlns="http://www.w3.org/2000/svg" width="760" height="300" viewBox="0 0 760 300" fill="none">
  <rect width="760" height="300" rx="28" fill="#FAF8F4"/>
  <path d="M64 218C156 180 248 224 336 172C438 112 524 156 704 82" stroke="#D8CBBE" stroke-width="2" opacity=".75"/>
  <g filter="url(#soft)">
    <rect x="92" y="126" width="164" height="80" rx="26" fill="#26323F"/>
    <rect x="122" y="151" width="108" height="30" rx="15" fill="#FAF8F4"/>
    <path d="M100 137C126 104 218 104 248 138" stroke="#D8CBBE" stroke-width="11" stroke-linecap="round"/>
  </g>
  <g filter="url(#soft)">
    <rect x="446" y="64" width="222" height="134" rx="20" fill="white" stroke="#D8CBBE"/>
    <rect x="470" y="88" width="58" height="12" rx="6" fill="#F5EFE6"/>
    <path d="M476 152C496 138 514 146 532 132C556 114 580 164 604 144C620 131 636 126 652 134" stroke="#7A1F3D" stroke-width="4" stroke-linecap="round" stroke-linejoin="round"/>
    <path d="M476 170C510 162 542 166 574 174C604 181 632 171 652 160" stroke="#7A9B76" stroke-width="3" stroke-linecap="round" opacity=".85"/>
  </g>
  <g filter="url(#soft)">
    <rect x="384" y="174" width="88" height="70" rx="18" fill="#26323F"/>
    <rect x="398" y="188" width="60" height="34" rx="9" fill="#FAF8F4"/>
    <text x="428" y="210" text-anchor="middle" fill="#7A1F3D" font-family="Inter, Arial" font-size="16" font-weight="800">98</text>
    <circle cx="428" cy="232" r="4" fill="#7A9B76"/>
  </g>
  <circle cx="340" cy="96" r="38" fill="#F5EFE6" stroke="#D8CBBE"/>
  <path d="M325 94c-8-10-2-23 11-23 7 0 12 4 14 9 2-5 7-9 14-9 13 0 19 13 11 23l-25 26-25-26z" stroke="#7A1F3D" stroke-width="5" stroke-linejoin="round"/>
  <defs>
    <filter id="soft" x="58" y="40" width="642" height="236" filterUnits="userSpaceOnUse">
      <feDropShadow dx="0" dy="18" stdDeviation="17" flood-color="#1B1630" flood-opacity=".15"/>
    </filter>
  </defs>
</svg>
