<svg xmlns="http://www.w3.org/2000/svg" width="760" height="300" viewBox="0 0 760 300" fill="none">
  <rect width="760" height="300" rx="28" fill="#FAF8F4"/>
  <path d="M44 238C152 198 236 238 328 192C422 145 510 180 716 84" stroke="#D8CBBE" stroke-width="2" opacity=".75"/>
  <g filter="url(#shadow)">
    <rect x="274" y="46" width="268" height="168" rx="18" fill="white" stroke="#D8CBBE"/>
    <rect x="296" y="70" width="72" height="14" rx="7" fill="#F5EFE6"/>
    <rect x="296" y="96" width="220" height="80" rx="14" fill="#F5EFE6"/>
    <path d="M316 145C330 130 344 137 358 126C377 111 392 156 408 141C426 124 440 117 456 132C476 151 492 101 514 116" stroke="#7A1F3D" stroke-width="4" stroke-linecap="round" stroke-linejoin="round"/>
    <path d="M316 158C350 164 384 165 418 159C452 153 486 160 514 152" stroke="#7A9B76" stroke-width="3" stroke-linecap="round" opacity=".85"/>
    <rect x="296" y="190" width="64" height="8" rx="4" fill="#D8CBBE"/>
    <rect x="376" y="190" width="86" height="8" rx="4" fill="#D8CBBE"/>
  </g>
  <g filter="url(#deviceShadow)">
    <rect x="564" y="132" width="76" height="84" rx="18" fill="#26323F"/>
    <rect x="574" y="144" width="56" height="48" rx="10" fill="#FAF8F4"/>
    <text x="602" y="172" text-anchor="middle" fill="#7A1F3D" font-family="Inter, Arial" font-size="18" font-weight="800">120</text>
    <text x="602" y="189" text-anchor="middle" fill="#1B1630" font-family="Inter, Arial" font-size="11" font-weight="700">80</text>
    <circle cx="602" cy="203" r="4" fill="#7A9B76"/>
  </g>
  <g filter="url(#deviceShadow)">
    <rect x="152" y="126" width="86" height="108" rx="22" fill="#26323F"/>
    <rect x="164" y="140" width="62" height="72" rx="15" fill="#F5EFE6"/>
    <path d="M178 178C187 164 198 194 209 170" stroke="#7A1F3D" stroke-width="4" stroke-linecap="round"/>
    <circle cx="195" cy="220" r="5" fill="#7A9B76"/>
  </g>
  <circle cx="116" cy="90" r="28" fill="#F5EFE6" stroke="#D8CBBE"/>
  <path d="M101 90h11l5-13 8 25 5-12h13" stroke="#7A1F3D" stroke-width="4" stroke-linecap="round" stroke-linejoin="round"/>
  <defs>
    <filter id="shadow" x="244" y="20" width="328" height="228" filterUnits="userSpaceOnUse">
      <feDropShadow dx="0" dy="18" stdDeviation="18" flood-color="#1B1630" flood-opacity=".14"/>
    </filter>
    <filter id="deviceShadow" x="118" y="100" width="552" height="166" filterUnits="userSpaceOnUse">
      <feDropShadow dx="0" dy="16" stdDeviation="14" flood-color="#1B1630" flood-opacity=".16"/>
    </filter>
  </defs>
</svg>
