<svg xmlns="http://www.w3.org/2000/svg" width="1200" height="920" viewBox="0 0 1200 920" fill="none">
  <rect width="1200" height="920" rx="56" fill="#F5EFE6"/>
  <rect x="34" y="34" width="1132" height="852" rx="44" fill="#FAF8F4" stroke="#D8CBBE" stroke-width="2"/>
  <circle cx="600" cy="460" r="300" stroke="#D8CBBE" stroke-width="2" stroke-dasharray="10 16" opacity=".58"/>
  <circle cx="600" cy="460" r="205" stroke="#7A1F3D" stroke-width="2" opacity=".10"/>
  <circle cx="600" cy="460" r="122" fill="#F5EFE6" stroke="#D8CBBE" stroke-width="2"/>
  <g opacity=".72" stroke="#7A1F3D" stroke-width="3" stroke-linecap="round">
    <path d="M600 460 C600 350 600 274 600 190"/>
    <path d="M600 460 C708 402 790 320 902 306"/>
    <path d="M600 460 C714 524 792 600 902 614"/>
    <path d="M600 460 C600 570 600 646 600 730"/>
    <path d="M600 460 C486 524 408 600 298 614"/>
    <path d="M600 460 C492 402 410 320 298 306"/>
  </g>
  <g filter="url(#shadow)">
    <rect x="494" y="354" width="212" height="212" rx="44" fill="#FAF8F4" stroke="#D8CBBE" stroke-width="2"/>
    <rect x="565" y="388" width="70" height="70" rx="22" fill="url(#burgundy)"/>
    <text x="600" y="432" text-anchor="middle" fill="white" font-family="Inter, Arial, sans-serif" font-size="25" font-weight="800">eV</text>
    <text x="600" y="500" text-anchor="middle" fill="#1F1F1F" font-family="Inter, Arial, sans-serif" font-size="28" font-weight="800">e-Vitals</text>
  </g>
  <g filter="url(#cardShadow)" font-family="Inter, Arial, sans-serif">
    <g>
      <rect x="435" y="110" width="330" height="112" rx="28" fill="#FAF8F4" stroke="#D8CBBE" stroke-width="2"/>
      <rect x="466" y="140" width="52" height="52" rx="18" fill="#F5EFE6" stroke="#7A1F3D" stroke-opacity=".28"/>
      <text x="492" y="173" text-anchor="middle" fill="#7A1F3D" font-size="18" font-weight="800">PC</text>
      <text x="540" y="158" fill="#1F1F1F" font-size="20" font-weight="800">Primary Care</text>
      <text x="540" y="186" fill="#6B4F3A" font-size="14" font-weight="600">Connected specialty</text>
    </g>
    <g>
      <rect x="738" y="250" width="320" height="112" rx="28" fill="#FAF8F4" stroke="#D8CBBE" stroke-width="2"/>
      <rect x="769" y="280" width="52" height="52" rx="18" fill="#F5EFE6" stroke="#7A1F3D" stroke-opacity=".28"/>
      <text x="795" y="313" text-anchor="middle" fill="#7A1F3D" font-size="18" font-weight="800">CA</text>
      <text x="843" y="298" fill="#1F1F1F" font-size="20" font-weight="800">Cardiology</text>
      <text x="843" y="326" fill="#6B4F3A" font-size="14" font-weight="600">Connected specialty</text>
    </g>
    <g>
      <rect x="738" y="558" width="320" height="112" rx="28" fill="#FAF8F4" stroke="#D8CBBE" stroke-width="2"/>
      <rect x="769" y="588" width="52" height="52" rx="18" fill="#F5EFE6" stroke="#7A1F3D" stroke-opacity=".28"/>
      <text x="795" y="621" text-anchor="middle" fill="#7A1F3D" font-size="18" font-weight="800">EN</text>
      <text x="843" y="606" fill="#1F1F1F" font-size="20" font-weight="800">Endocrinology</text>
      <text x="843" y="634" fill="#6B4F3A" font-size="14" font-weight="600">Connected specialty</text>
    </g>
    <g>
      <rect x="435" y="698" width="330" height="112" rx="28" fill="#FAF8F4" stroke="#D8CBBE" stroke-width="2"/>
      <rect x="466" y="728" width="52" height="52" rx="18" fill="#F5EFE6" stroke="#7A1F3D" stroke-opacity=".28"/>
      <text x="492" y="761" text-anchor="middle" fill="#7A1F3D" font-size="18" font-weight="800">PU</text>
      <text x="540" y="746" fill="#1F1F1F" font-size="20" font-weight="800">Pulmonology</text>
      <text x="540" y="774" fill="#6B4F3A" font-size="14" font-weight="600">Connected specialty</text>
    </g>
    <g>
      <rect x="142" y="558" width="320" height="112" rx="28" fill="#FAF8F4" stroke="#D8CBBE" stroke-width="2"/>
      <rect x="173" y="588" width="52" height="52" rx="18" fill="#F5EFE6" stroke="#7A1F3D" stroke-opacity=".28"/>
      <text x="199" y="621" text-anchor="middle" fill="#7A1F3D" font-size="18" font-weight="800">NE</text>
      <text x="247" y="606" fill="#1F1F1F" font-size="20" font-weight="800">Nephrology</text>
      <text x="247" y="634" fill="#6B4F3A" font-size="14" font-weight="600">Connected specialty</text>
    </g>
    <g>
      <rect x="142" y="250" width="320" height="112" rx="28" fill="#FAF8F4" stroke="#D8CBBE" stroke-width="2"/>
      <rect x="173" y="280" width="52" height="52" rx="18" fill="#F5EFE6" stroke="#7A1F3D" stroke-opacity=".28"/>
      <text x="199" y="313" text-anchor="middle" fill="#7A1F3D" font-size="18" font-weight="800">IM</text>
      <text x="247" y="298" fill="#1F1F1F" font-size="20" font-weight="800">Internal Medicine</text>
      <text x="247" y="326" fill="#6B4F3A" font-size="14" font-weight="600">Connected specialty</text>
    </g>
  </g>
  <defs>
    <linearGradient id="burgundy" x1="565" y1="388" x2="635" y2="458" gradientUnits="userSpaceOnUse">
      <stop stop-color="#7A1F3D"/>
      <stop offset="1" stop-color="#55152B"/>
    </linearGradient>
    <filter id="shadow" x="454" y="314" width="292" height="292" filterUnits="userSpaceOnUse" color-interpolation-filters="sRGB">
      <feDropShadow dx="0" dy="22" stdDeviation="20" flood-color="#6B4F3A" flood-opacity=".18"/>
    </filter>
    <filter id="cardShadow" x="104" y="78" width="992" height="772" filterUnits="userSpaceOnUse" color-interpolation-filters="sRGB">
      <feDropShadow dx="0" dy="18" stdDeviation="18" flood-color="#6B4F3A" flood-opacity=".12"/>
    </filter>
  </defs>
</svg>
