<svg xmlns="http://www.w3.org/2000/svg" width="1200" height="920" viewBox="0 0 1200 920" fill="none">
  <rect width="1200" height="920" rx="56" fill="#F5EFE6"/>
  <circle cx="600" cy="460" r="300" stroke="#D8CBBE" stroke-width="2" stroke-dasharray="10 16" opacity=".58"/>
  <circle cx="600" cy="460" r="205" stroke="#7A1F3D" stroke-width="2" opacity=".10"/>
  <circle cx="600" cy="460" r="122" fill="#F5EFE6" stroke="#D8CBBE" stroke-width="2"/>
  <g opacity=".72" stroke="#7A1F3D" stroke-width="3" stroke-linecap="round">
    <path d="M600 460 C600 350 600 274 600 190"/>
    <path d="M600 460 C708 402 790 320 902 306"/>
    <path d="M600 460 C714 524 792 600 902 614"/>
    <path d="M600 460 C600 570 600 646 600 730"/>
    <path d="M600 460 C486 524 408 600 298 614"/>
    <path d="M600 460 C492 402 410 320 298 306"/>
  </g>
  <g filter="url(#shadow)">
    <circle cx="600" cy="460" r="96" fill="url(#navyCenter)" stroke="#D8CBBE" stroke-width="2"/>
    <text x="600" y="460" text-anchor="middle" dominant-baseline="middle" fill="#FAF8F4" font-family="Inter, Arial, sans-serif" font-size="36" font-weight="900">e-Vitals</text>
  </g>
  <g filter="url(#cardShadow)" font-family="Inter, Arial, sans-serif">
    <g>
      <rect x="435" y="110" width="330" height="112" rx="28" fill="#FAF8F4" stroke="#D8CBBE" stroke-width="2"/>
      <text x="600" y="166" text-anchor="middle" dominant-baseline="middle" fill="#1F1F1F" font-size="24" font-weight="800">Primary Care</text>
    </g>
    <g>
      <rect x="738" y="250" width="320" height="112" rx="28" fill="#FAF8F4" stroke="#D8CBBE" stroke-width="2"/>
      <text x="898" y="306" text-anchor="middle" dominant-baseline="middle" fill="#1F1F1F" font-size="24" font-weight="800">Cardiology</text>
    </g>
    <g>
      <rect x="738" y="558" width="320" height="112" rx="28" fill="#FAF8F4" stroke="#D8CBBE" stroke-width="2"/>
      <text x="898" y="614" text-anchor="middle" dominant-baseline="middle" fill="#1F1F1F" font-size="24" font-weight="800">Endocrinology</text>
    </g>
    <g>
      <rect x="435" y="698" width="330" height="112" rx="28" fill="#FAF8F4" stroke="#D8CBBE" stroke-width="2"/>
      <text x="600" y="754" text-anchor="middle" dominant-baseline="middle" fill="#1F1F1F" font-size="24" font-weight="800">Pulmonology</text>
    </g>
    <g>
      <rect x="142" y="558" width="320" height="112" rx="28" fill="#FAF8F4" stroke="#D8CBBE" stroke-width="2"/>
      <text x="302" y="614" text-anchor="middle" dominant-baseline="middle" fill="#1F1F1F" font-size="24" font-weight="800">Nephrology</text>
    </g>
    <g>
      <rect x="142" y="250" width="320" height="112" rx="28" fill="#FAF8F4" stroke="#D8CBBE" stroke-width="2"/>
      <text x="302" y="306" text-anchor="middle" dominant-baseline="middle" fill="#1F1F1F" font-size="24" font-weight="800">Internal Medicine</text>
    </g>
  </g>
  <defs>
    <linearGradient id="burgundy" x1="565" y1="388" x2="635" y2="458" gradientUnits="userSpaceOnUse">
      <stop stop-color="#7A1F3D"/>
      <stop offset="1" stop-color="#55152B"/>
    </linearGradient>
    <linearGradient id="navyCenter" x1="520" y1="374" x2="684" y2="550" gradientUnits="userSpaceOnUse">
      <stop stop-color="#1B1630"/>
      <stop offset=".5" stop-color="#2A1830"/>
      <stop offset="1" stop-color="#7A1F3D"/>
    </linearGradient>
    <filter id="shadow" x="454" y="314" width="292" height="292" filterUnits="userSpaceOnUse" color-interpolation-filters="sRGB">
      <feDropShadow dx="0" dy="22" stdDeviation="20" flood-color="#1B1630" flood-opacity=".18"/>
    </filter>
    <filter id="cardShadow" x="104" y="78" width="992" height="772" filterUnits="userSpaceOnUse" color-interpolation-filters="sRGB">
      <feDropShadow dx="0" dy="18" stdDeviation="18" flood-color="#1B1630" flood-opacity=".12"/>
    </filter>
  </defs>
</svg>
